<svg xmlns="http://www.w3.org/2000/svg" viewBox="0 0 512 512" role="img" aria-label="TideWindow">
  <rect width="512" height="512" rx="96" fill="#0c1418"/>
  <circle cx="256" cy="170" r="46" fill="#1fd3d8"/>
  <path d="M40 300c40 0 40 26 80 26s40-26 80-26 40 26 80 26 40-26 80-26 40 26 80 26 32-22 32-22"
        fill="none" stroke="#1fd3d8" stroke-width="22" stroke-linecap="round"/>
  <path d="M40 372c40 0 40 26 80 26s40-26 80-26 40 26 80 26 40-26 80-26 40 26 80 26 32-22 32-22"
        fill="none" stroke="#46d98a" stroke-width="22" stroke-linecap="round" opacity="0.85"/>
</svg>
